<svg width="434" height="130" viewBox="0 0 434 130" fill="none" xmlns="http://www.w3.org/2000/svg">
<rect width="130" height="130" rx="20" fill="#F5BB47"/>
<path d="M20 116.5H37V103.5H54.5L61 78.5H88.5C83.5 67.5 70 61.5 53 61.5C36 61.5 15 69 15 91V111.5C15 114.261 17.2386 116.5 20 116.5Z" fill="white"/>
<path d="M116.616 86L107.616 120H44L44.1163 111.5H60.4827L66.8663 86H116.616Z" fill="white"/>
<circle cx="52" cy="34" r="21" fill="white"/>
<path d="M144.513 123C143.304 123 142.7 122.396 142.7 121.187V28.17C142.7 26.9617 143.304 26.3575 144.513 26.3575H195.045C196.253 26.3575 196.858 26.9617 196.858 28.17V43.83C196.858 45.0383 196.253 45.6425 195.045 45.6425H166.843V66.2325H192.58C193.788 66.2325 194.393 66.8367 194.393 68.045V81.3125C194.393 82.5208 193.788 83.125 192.58 83.125H166.843V103.642H195.045C196.253 103.642 196.858 104.247 196.858 105.455V121.187C196.858 122.396 196.253 123 195.045 123H144.513ZM208.771 123C207.563 123 206.959 122.396 206.959 121.187V28.17C206.959 26.9617 207.563 26.3575 208.771 26.3575H249.951C251.111 26.3575 252.078 26.7442 252.851 27.5175L267.351 42.0175C268.173 42.8392 268.584 43.8058 268.584 44.9175V121.187C268.584 122.396 267.98 123 266.771 123H246.254C245.045 123 244.441 122.396 244.441 121.187V45.6425H231.101V121.187C231.101 122.396 230.497 123 229.289 123H208.771ZM280.535 123C279.327 123 278.722 122.396 278.722 121.187V28.17C278.722 26.9617 279.327 26.3575 280.535 26.3575H301.052C302.261 26.3575 302.865 26.9617 302.865 28.17V121.187C302.865 122.396 302.261 123 301.052 123H280.535ZM314.267 123C313.058 123 312.454 122.396 312.454 121.187V53.98C312.454 53.3517 312.696 52.6267 313.179 51.805L330.362 27.445C330.893 26.72 331.667 26.3575 332.682 26.3575H356.679C357.743 26.3575 358.516 26.72 358.999 27.445L376.254 51.805C376.738 52.4817 376.979 53.2067 376.979 53.98V121.187C376.979 122.396 376.375 123 375.167 123H354.649C353.441 123 352.837 122.396 352.837 121.187V90.375H336.669V121.187C336.669 122.396 336.065 123 334.857 123H314.267ZM344.717 74.7875C349.163 74.7875 352.16 73.8208 353.707 71.8875C355.302 69.9058 356.099 66.16 356.099 60.65C356.099 55.14 355.302 51.4183 353.707 49.485C352.16 47.5033 349.163 46.5125 344.717 46.5125C340.318 46.5125 337.322 47.5033 335.727 49.485C334.18 51.4183 333.407 55.14 333.407 60.65C333.407 66.16 334.18 69.9058 335.727 71.8875C337.322 73.8208 340.318 74.7875 344.717 74.7875ZM414.113 123C413.001 123 412.034 122.686 411.213 122.057L399.395 111.255L387.433 95.6675C386.901 94.9908 386.563 94.58 386.418 94.435C386.273 94.2417 386.2 93.8067 386.2 93.13V56.155C386.2 55.4783 386.273 55.0433 386.418 54.85C386.611 54.6567 386.949 54.2458 387.433 53.6175L398.525 39.2625L411.213 27.3C411.744 26.865 412.155 26.5992 412.445 26.5025C412.784 26.4058 413.339 26.3575 414.113 26.3575H432.02C433.229 26.3575 433.833 26.9617 433.833 28.17V39.77C433.833 40.1567 433.784 40.5675 433.688 41.0025C433.639 41.3892 433.398 41.7275 432.963 42.0175L419.333 51.37L410.415 62.825V86.5325L419.478 97.9875L432.963 107.267C433.349 107.509 433.591 107.799 433.688 108.137C433.784 108.476 433.833 108.838 433.833 109.225V121.187C433.833 122.396 433.229 123 432.02 123H414.113Z" fill="white"/>
</svg>
