<?xml version="1.0" encoding="utf-8"?>
<!-- Generator: Adobe Illustrator 16.0.0, SVG Export Plug-In . SVG Version: 6.00 Build 0)  -->
<!DOCTYPE svg PUBLIC "-//W3C//DTD SVG 1.1//EN" "http://www.w3.org/Graphics/SVG/1.1/DTD/svg11.dtd">
<svg version="1.1" id="Layer_1" xmlns="http://www.w3.org/2000/svg" xmlns:xlink="http://www.w3.org/1999/xlink" x="0px" y="0px"
	 width="500px" height="500px" viewBox="0 0 500 500" enable-background="new 0 0 500 500" xml:space="preserve">
<path fill="none" stroke="#000000" stroke-width="18" d="M250.001,12.588C381.12,12.59,487.41,118.88,487.41,249.999
	c0.003,131.12-106.29,237.411-237.409,237.411C118.883,487.411,12.59,381.118,12.589,250
	C12.59,118.881,118.883,12.588,250.001,12.588z"/>
<path d="M323.718,249.999c0,40.71-33.005,73.719-73.717,73.719c-40.715,0-73.719-33.012-73.72-73.719
	c0-40.714,33.005-73.717,73.718-73.717C290.715,176.282,323.718,209.282,323.718,249.999z"/>
<path fill="none" stroke="#000000" stroke-width="18" d="M342.56,250c-0.002,51.118-41.443,92.556-92.559,92.558
	c-51.121,0.002-92.56-41.439-92.56-92.559c0-51.118,41.441-92.558,92.559-92.558C301.119,157.443,342.56,198.879,342.56,250z"/>
<path fill="none" stroke="#000000" stroke-width="18" d="M250,250L201.048,69.047c0,0,24.476-7.736,48.952-6.546v-49.97"/>
<path fill="none" stroke="#000000" stroke-width="18" d="M250,250L117.13,117.766c0,0,17.329-18.938,39.121-30.145l-24.985-43.275"
	/>
<path fill="none" stroke="#000000" stroke-width="18" d="M250,250L68.814,201.917c0,0,5.539-25.065,18.807-45.666l-43.275-24.985"/>
<path fill="none" stroke="#000000" stroke-width="18" d="M250,250L69.046,298.953c0,0-7.735-24.479-6.546-48.953H12.531"/>
<path fill="none" stroke="#000000" stroke-width="18" d="M250,250L117.765,382.87c0,0-18.936-17.329-30.144-39.121l-43.274,24.985"
	/>
<path fill="none" stroke="#000000" stroke-width="18" d="M250,250l-48.083,181.187c0,0-25.064-5.538-45.666-18.808l-24.984,43.275"
	/>
<path fill="none" stroke="#000000" stroke-width="18" d="M250,250l48.951,180.953c0,0-24.476,7.736-48.951,6.546l0.001,49.97"/>
<path fill="none" stroke="#000000" stroke-width="18" d="M250,250l132.87,132.234c0,0-17.328,18.938-39.12,30.145l24.985,43.275"/>
<path fill="none" stroke="#000000" stroke-width="18" d="M250,250l181.187,48.083c0,0-5.538,25.065-18.808,45.666l43.276,24.985"/>
<path fill="none" stroke="#000000" stroke-width="18" d="M250,250l180.953-48.951c0,0,7.736,24.474,6.546,48.951l49.971,0"/>
<path fill="none" stroke="#000000" stroke-width="18" d="M250,250l132.234-132.87c0,0,18.938,17.328,30.145,39.121l43.276-24.986"/>
<path fill="none" stroke="#000000" stroke-width="18" d="M250,250l48.083-181.186c0,0,25.065,5.538,45.667,18.807l24.984-43.275"/>
</svg>
